# xmcd CD database file
#
# Track frame offsets:
#	150
#	29452
#	57770
#	88365
#	116492
#	144345
#	175535
#	201007
#	235357
#	267297
#	290885
#
# Disc length: 4102 seconds
#
# Revision: 0
# Processed by: cddbd v1.5.2PL0 Copyright (c) Steve Scherf et al.
# Submitted via: CDex 1.51
#
DISCID=a010040b
DTITLE=The Fratermen - Spielerlaubnis
DYEAR=1991
DGENRE=Jazz
TTITLE0=Mont go
TTITLE1=der 24 Mai 1990
TTITLE2=Jurmala
TTITLE3=Blues E (h)
TTITLE4=Aman
TTITLE5=Inspactor bounce
TTITLE6=Mirimbi
TTITLE7=Veronique
TTITLE8=Yteinen
TTITLE9=piper club
TTITLE10=ende
EXTD=YEAR: 1991
EXTT0=
EXTT1=
EXTT2=
EXTT3=
EXTT4=
EXTT5=
EXTT6=
EXTT7=
EXTT8=
EXTT9=
EXTT10=
PLAYORDER=
